# xmcd
# 
# Track frame offsets:
#     150
#     5944
#     19115
#     29740
#     42992
# 
# Disc length: 794
# 
# Revision: 0
# Processed by: cddbd v1.5.2PL0 Copyright (c) Steve Scherf et al.
# Submitted via: fre:ac v1.0.17
# 
DISCID=3e031805
DTITLE=Vektor - We are Vektor
DYEAR=2007
DGENRE=Punk
TTITLE0=Test Pattern (insturmental)
TTITLE1=プラズマーネーション
TTITLE2=Do Do
TTITLE3=レトルトBOY (ZIKKKKEN 1990)
TTITLE4=Black Bird Suicide
EXTD=
EXTT0=
EXTT1=
EXTT2=
EXTT3=
EXTT4=
PLAYORDER=
